<svg xmlns="http://www.w3.org/2000/svg" xmlns:xlink="http://www.w3.org/1999/xlink"><symbol id="sprite-arrow" fill="none" viewBox="0 0 22 22"><path stroke="#102654" d="m6 1 10 10-10 10"/></symbol><use xlink:href="#sprite-arrow" width="22" height="22"/><view id="sprite-arrow-view" viewBox="0 0 22 22"/><symbol id="sprite-logo_mob" fill="none" viewBox="0 0 100 20"><path fill="#fff" d="M86.91.28h2.78l3.2 13.3 3.2-13.3h2.46l-4.47 19.45h-2.37zm-1.12 0h2.64l.41 12.83v6.62h-3.05zm11.55 0h2.66v19.45h-3.05v-6.62zm-21.24 0 2.4 8.76 2.38-8.76h3.45l-4.24 12.39v7.06h-3.19v-7.06l-4.24-12.39zm-3.84 9.23v8.02q-.33.45-.98 1.03a6 6 0 0 1-4.19 1.44 5 5 0 0 1-4.2-2.04 8 8 0 0 1-1.16-2.6q-.4-1.56-.4-3.7v-3.31q0-2.1.38-3.67a8 8 0 0 1 1.12-2.62 4.7 4.7 0 0 1 4.07-2.06q1.77 0 2.9.73a4.5 4.5 0 0 1 1.73 2.18q.6 1.44.72 3.54h-3.06a7 7 0 0 0-.34-1.92q-.24-.7-.7-.99t-1.18-.3q-.62 0-1.09.27-.46.27-.78.89-.3.6-.46 1.57c-.16.97-.15 1.43-.15 2.35v3.34q0 1.38.17 2.35c.17.97.28 1.18.5 1.6q.36.6.87.89.53.27 1.25.27a2.3 2.3 0 0 0 1.47-.45l.35-.27v-3.59h-2.26v-2.95zm-23.71-9.23h5.04q1.58 0 2.7.67a4.3 4.3 0 0 1 1.7 1.98q.6 1.3.6 3.23 0 1.57-.35 2.7a5 5 0 0 1-.98 1.85q-.64.75-1.53 1.18l-.96.7h-4.1v-3.24h2.84q.65 0 1.07-.35.43-.36.64-1c.21-.64.21-.94.21-1.52q0-.92-.2-1.58a2 2 0 0 0-.59-1.01 1.5 1.5 0 0 0-1.05-.36h-1.88v16.2h-3.16zm7.14 19.45-2.88-8.67 3.31-.01 2.95 8.5v.18zm-9.78-3.23v3.23h-6.84v-3.23zm-5.86-16.22v19.45h-3.16v-19.45zm4.94 7.88v3.14h-5.92v-3.14zm.9-7.88v3.25h-6.82v-3.25zm-15.45 12.6h-3.22v-3.25h3.22q.67 0 1.1-.37.42-.38.62-1.03a5.7 5.7 0 0 0-.01-3.06 3 3 0 0 0-.62-1.19 1.4 1.4 0 0 0-1.09-.45h-2.2v16.2h-3.16v-19.45h5.36q1.59 0 2.73.83a5 5 0 0 1 1.76 2.28q.6 1.45.61 3.32c.01 1.87-.2 2.34-.61 3.27q-.61 1.38-1.76 2.14-1.14.75-2.73.76m-10.94-12.6h3.16v13.36a9 9 0 0 1-.67 3.66 4.4 4.4 0 0 1-1.83 2.06q-1.17.64-2.67.64c-1.5 0-1.9-.21-2.7-.64a4.4 4.4 0 0 1-1.83-2.06 9 9 0 0 1-.65-3.66v-13.36h3.16v13.36q0 1.28.23 1.95.23.69.68.94.45.24 1.11.24t1.1-.24q.45-.25.67-.94.24-.68.24-1.95zm-12.37 14.34q0-.53-.07-.95a2 2 0 0 0-.33-.8 3 3 0 0 0-.7-.71q-.45-.37-1.19-.75-.87-.45-1.7-.96a8 8 0 0 1-1.48-1.2 5.2 5.2 0 0 1-1.42-3.8q0-1.23.35-2.23a5 5 0 0 1 2.61-2.82 5.1 5.1 0 0 1 4.64.39 5 5 0 0 1 1.72 2.12q.6 1.35.61 3.1h-3.15q0-.83-.2-1.45a2 2 0 0 0-.6-1 1.6 1.6 0 0 0-1.05-.37q-.6 0-1 .31-.4.3-.6.82-.17.5-.18 1.14a2 2 0 0 0 .19.87q.19.38.53.68.33.3.79.58t1.01.55q1.08.52 1.9 1.15a6 6 0 0 1 2.2 3.11 8 8 0 0 1-.07 4.4 4.4 4.4 0 0 1-2.55 2.8 5.7 5.7 0 0 1-4.1.01 4.9 4.9 0 0 1-2.87-3.14 9 9 0 0 1-.42-2.87h3.17a7 7 0 0 0 .14 1.51q.15.62.43.99a2 2 0 0 0 .71.55q.44.17.99.17.63 0 1-.3.36-.29.53-.78c.17-.49.16-.7.16-1.12"/></symbol><use xlink:href="#sprite-logo_mob" width="100" height="20" y="22"/><view id="sprite-logo_mob-view" viewBox="0 22 100 20"/><symbol id="sprite-minus" fill="none" viewBox="0 0 22 22"><path stroke="#fff" d="M21 11h-20"/></symbol><use xlink:href="#sprite-minus" width="22" height="22" y="42"/><view id="sprite-minus-view" viewBox="0 42 22 22"/><symbol id="sprite-ok" fill="none" viewBox="0 0 22 22"><path fill="#030A1A" d="M11 3.33c1.32 0 2.4 1.05 2.4 2.35s-1.08 2.35-2.4 2.35-2.4-1.06-2.4-2.35c0-1.3 1.08-2.35 2.4-2.35m0 8.02c3.2 0 5.8-2.54 5.8-5.67s-2.6-5.68-5.8-5.68-5.79 2.55-5.79 5.68 2.6 5.68 5.79 5.68m2.34 4.63a11 11 0 0 0 3.37-1.37 1.64 1.64 0 0 0 .53-2.3 1.7 1.7 0 0 0-2.34-.52 7.5 7.5 0 0 1-7.8 0 1.7 1.7 0 0 0-2.34.53 1.64 1.64 0 0 0 .53 2.29 11 11 0 0 0 3.37 1.37l-3.24 3.17a1.64 1.64 0 0 0 0 2.35 1.73 1.73 0 0 0 2.4 0l3.18-3.12 3.18 3.12a1.7 1.7 0 0 0 2.4 0 1.64 1.64 0 0 0 0-2.35z"/></symbol><use xlink:href="#sprite-ok" width="22" height="22" y="64"/><view id="sprite-ok-view" viewBox="0 64 22 22"/><symbol id="sprite-play" fill="none" viewBox="0 0 9 12"><path fill="#fff" d="m9 6-9 5.2v-10.4z"/></symbol><use xlink:href="#sprite-play" width="9" height="12" y="86"/><view id="sprite-play-view" viewBox="0 86 9 12"/><symbol id="sprite-plus" fill="none" viewBox="0 0 20 20"><path stroke="#102654" d="M10 0v10m0 10v-10m0 0h10m-10 0h-10"/></symbol><use xlink:href="#sprite-plus" width="20" height="20" y="98"/><view id="sprite-plus-view" viewBox="0 98 20 20"/><symbol id="sprite-reddit" fill="none" viewBox="0 0 22 22"><path fill="#030A1A" d="M12.95.5a2.1 2.1 0 0 0-1.63.83c-.39.5-.6 1.1-.76 1.73a15 15 0 0 0-.34 3.17c-1.8.12-3.43.68-4.79 1.55a2.8 2.8 0 0 0-1.85-.75 2.4 2.4 0 0 0-1.92 1 3.8 3.8 0 0 0 .27 4.64 7 7 0 0 0-.12 1.18c0 4.23 4.11 7.65 9.19 7.65s9.2-3.43 9.2-7.65q-.01-.6-.13-1.18a3.8 3.8 0 0 0 .27-4.63 2.4 2.4 0 0 0-1.92-1.01c-.64 0-1.3.26-1.85.75a10 10 0 0 0-4.77-1.56c.03-.93.1-1.9.27-2.64q.17-.7.39-.98c.22-.28.25-.26.49-.26.52 0 .58.18.9.6.15.22.34.5.63.75.29.27.72.5 1.19.5v-1.85c-.13 0-.16 0-.24-.09q-.13-.13-.4-.51c-.35-.5-1.05-1.24-2.08-1.24m5.06.17c-1.22 0-2.2 1.16-2.2 2.6 0 1.42.98 2.58 2.2 2.58s2.18-1.16 2.18-2.59-.98-2.59-2.19-2.59m0 .92c.78 0 1.41.75 1.41 1.67s-.63 1.67-1.4 1.67-1.42-.75-1.42-1.67.64-1.67 1.41-1.67m-7 6.07c4.3 0 7.95 2.84 7.95 6.19s-3.64 6.18-7.95 6.18-7.95-2.83-7.95-6.18 3.64-6.19 7.95-6.19m-7.4.84q.34 0 .66.17-1.18 1.05-1.82 2.42c-.3-.72-.21-1.6.15-2.07a1.2 1.2 0 0 1 1.02-.52m14.78 0q.62 0 1.02.51c.36.48.44 1.37.15 2.08a8 8 0 0 0-1.82-2.42 2 2 0 0 1 .65-.17m-10.5 2.3c-.78 0-1.41.75-1.41 1.67s.63 1.67 1.4 1.67 1.42-.75 1.42-1.67-.63-1.67-1.41-1.67m6.22 0c-.78 0-1.4.75-1.4 1.67s.62 1.67 1.4 1.67 1.41-.75 1.41-1.67-.63-1.67-1.4-1.67m-6.99 5.67c.5 1.2 2.03 2.38 3.87 2.38s3.4-1.17 3.89-2.38c-.9.68-2.32 1.15-3.89 1.15s-2.97-.47-3.87-1.15"/></symbol><use xlink:href="#sprite-reddit" width="22" height="22" y="118"/><view id="sprite-reddit-view" viewBox="0 118 22 22"/><symbol id="sprite-rublik" fill="none" viewBox="0 0 30 42"><path fill="#102654" fill-rule="evenodd" d="M0 17h6v6h-6z" clip-rule="evenodd"/><path fill="#102654" fill-rule="evenodd" d="M3.66 28.32v-10.32h6v10.32h11.34v6h-11.34v7.68h-6v-7.68h-3.66v-6z" clip-rule="evenodd"/><path fill="#102654" fill-rule="evenodd" d="M18.5 6h-8.5v11h8.5a5.5 5.5 0 1 0 0-11m-14.5-6v23h14.5a11.5 11.5 0 1 0 0-23z" clip-rule="evenodd"/></symbol><use xlink:href="#sprite-rublik" width="30" height="42" y="140"/><view id="sprite-rublik-view" viewBox="0 140 30 42"/><symbol id="sprite-vk" fill="none" viewBox="0 0 22 22"><path fill="#030A1A" d="M21.8 15.7c-.06-.1-.42-.85-2.18-2.41-1.84-1.64-1.6-1.37.62-4.2 1.36-1.72 1.9-2.77 1.73-3.22-.16-.43-1.16-.32-1.16-.32l-3.3.02s-.25-.03-.43.07-.3.34-.3.34-.52 1.33-1.22 2.47c-1.47 2.39-2.06 2.51-2.3 2.37-.56-.35-.42-1.4-.42-2.14 0-2.31.37-3.28-.72-3.53a6 6 0 0 0-1.54-.15c-1.18 0-2.18 0-2.74.27-.38.18-.67.57-.5.6.22.02.72.12.98.46.34.44.33 1.43.33 1.43s.2 2.73-.46 3.07c-.44.23-1.06-.24-2.37-2.41-.67-1.11-1.18-2.34-1.18-2.34s-.1-.23-.27-.35a1.4 1.4 0 0 0-.51-.2l-3.14.02s-.47.01-.65.2c-.15.18-.01.54-.01.54s2.46 5.5 5.25 8.28c2.55 2.55 5.46 2.38 5.46 2.38h1.3s.4-.04.6-.25.19-.55.19-.55-.03-1.69.8-1.94c.8-.24 1.84 1.63 2.93 2.35.83.55 1.47.43 1.47.43l2.94-.04s1.53-.1.8-1.25"/></symbol><use xlink:href="#sprite-vk" width="22" height="22" y="182"/><view id="sprite-vk-view" viewBox="0 182 22 22"/></svg>